<svg width="355" height="185" viewBox="0 0 355 185" fill="none" xmlns="http://www.w3.org/2000/svg">
<path d="M3.03409 46V11.0909H17.0114C19.5795 11.0909 21.7216 11.4716 23.4375 12.233C25.1534 12.9943 26.4432 14.0511 27.3068 15.4034C28.1705 16.7443 28.6023 18.2898 28.6023 20.0398C28.6023 21.4034 28.3295 22.6023 27.7841 23.6364C27.2386 24.6591 26.4886 25.5 25.5341 26.1591C24.5909 26.8068 23.5114 27.267 22.2955 27.5398V27.8807C23.625 27.9375 24.8693 28.3125 26.0284 29.0057C27.1989 29.6989 28.1477 30.6705 28.875 31.9205C29.6023 33.1591 29.9659 34.6364 29.9659 36.3523C29.9659 38.2045 29.5057 39.858 28.5852 41.3125C27.6761 42.7557 26.3295 43.8977 24.5455 44.7386C22.7614 45.5795 20.5625 46 17.9489 46H3.03409ZM10.4148 39.9659H16.4318C18.4886 39.9659 19.9886 39.5739 20.9318 38.7898C21.875 37.9943 22.3466 36.9375 22.3466 35.6193C22.3466 34.6534 22.1136 33.8011 21.6477 33.0625C21.1818 32.3239 20.517 31.7443 19.6534 31.3239C18.8011 30.9034 17.7841 30.6932 16.6023 30.6932H10.4148V39.9659ZM10.4148 25.6989H15.8864C16.8977 25.6989 17.7955 25.5227 18.5795 25.1705C19.375 24.8068 20 24.2955 20.4545 23.6364C20.9205 22.9773 21.1534 22.1875 21.1534 21.267C21.1534 20.0057 20.7045 18.9886 19.8068 18.2159C18.9205 17.4432 17.6591 17.0568 16.0227 17.0568H10.4148V25.6989ZM45.6039 46.5114C42.9107 46.5114 40.5926 45.9659 38.6494 44.875C36.7176 43.7727 35.2289 42.2159 34.1835 40.2045C33.138 38.1818 32.6153 35.7898 32.6153 33.0284C32.6153 30.3352 33.138 27.9716 34.1835 25.9375C35.2289 23.9034 36.7005 22.3182 38.5982 21.1818C40.5073 20.0455 42.746 19.4773 45.3141 19.4773C47.0414 19.4773 48.6494 19.7557 50.138 20.3125C51.638 20.858 52.9448 21.6818 54.0585 22.7841C55.1835 23.8864 56.0585 25.2727 56.6835 26.9432C57.3085 28.6023 57.621 30.5455 57.621 32.7727V34.767H35.513V30.267H50.7857C50.7857 29.2216 50.5585 28.2955 50.1039 27.4886C49.6494 26.6818 49.0187 26.0511 48.2119 25.5966C47.4164 25.1307 46.4903 24.8977 45.4335 24.8977C44.3312 24.8977 43.3539 25.1534 42.5016 25.6648C41.6607 26.1648 41.0016 26.8409 40.5244 27.6932C40.0471 28.5341 39.8028 29.4716 39.7914 30.5057V34.7841C39.7914 36.0795 40.0301 37.1989 40.5073 38.142C40.996 39.0852 41.6835 39.8125 42.5698 40.3239C43.4562 40.8352 44.5073 41.0909 45.7232 41.0909C46.5301 41.0909 47.2687 40.9773 47.9391 40.75C48.6096 40.5227 49.1835 40.1818 49.6607 39.7273C50.138 39.2727 50.5016 38.7159 50.7516 38.0568L57.4676 38.5C57.1266 40.1136 56.4278 41.5227 55.371 42.7273C54.3255 43.9205 52.9732 44.8523 51.3141 45.5227C49.6664 46.1818 47.763 46.5114 45.6039 46.5114ZM61.3996 46V19.8182H68.3201V24.4375H68.6269C69.1723 22.9034 70.0814 21.6932 71.3541 20.8068C72.6269 19.9205 74.1496 19.4773 75.9223 19.4773C77.7178 19.4773 79.2462 19.9261 80.5076 20.8239C81.7689 21.7102 82.6098 22.9148 83.0303 24.4375H83.303C83.8371 22.9375 84.803 21.7386 86.2007 20.8409C87.6098 19.9318 89.2746 19.4773 91.1951 19.4773C93.6382 19.4773 95.6212 20.2557 97.1439 21.8125C98.678 23.358 99.4451 25.5511 99.4451 28.392V46H92.2007V29.8239C92.2007 28.3693 91.8144 27.2784 91.0416 26.5511C90.2689 25.8239 89.303 25.4602 88.1439 25.4602C86.8257 25.4602 85.7973 25.8807 85.0587 26.7216C84.3201 27.5511 83.9507 28.6477 83.9507 30.0114V46H76.911V29.6705C76.911 28.3864 76.5417 27.3636 75.803 26.6023C75.0757 25.8409 74.1155 25.4602 72.9223 25.4602C72.1155 25.4602 71.3882 25.6648 70.7405 26.0739C70.1041 26.4716 69.5985 27.0341 69.2235 27.7614C68.8485 28.4773 68.661 29.3182 68.661 30.2841V46H61.3996ZM120.533 28.7841V34.5455H104.613V28.7841H120.533ZM150.17 19.8182L141.017 46H132.835L123.681 19.8182H131.352L136.789 38.5511H137.062L142.482 19.8182H150.17ZM152.926 46V19.8182H160.187V46H152.926ZM156.574 16.4432C155.494 16.4432 154.568 16.0852 153.795 15.3693C153.034 14.642 152.653 13.7727 152.653 12.7614C152.653 11.7614 153.034 10.9034 153.795 10.1875C154.568 9.46023 155.494 9.09659 156.574 9.09659C157.653 9.09659 158.574 9.46023 159.335 10.1875C160.108 10.9034 160.494 11.7614 160.494 12.7614C160.494 13.7727 160.108 14.642 159.335 15.3693C158.574 16.0852 157.653 16.4432 156.574 16.4432ZM172.305 30.8636V46H165.044V19.8182H171.964V24.4375H172.271C172.851 22.9148 173.822 21.7102 175.186 20.8239C176.55 19.9261 178.203 19.4773 180.146 19.4773C181.964 19.4773 183.55 19.875 184.902 20.6705C186.254 21.4659 187.305 22.6023 188.055 24.0795C188.805 25.5455 189.18 27.2955 189.18 29.3295V46H181.919V30.625C181.93 29.0227 181.521 27.7727 180.692 26.875C179.862 25.9659 178.72 25.5114 177.266 25.5114C176.288 25.5114 175.425 25.7216 174.675 26.142C173.936 26.5625 173.356 27.1761 172.936 27.983C172.527 28.7784 172.317 29.7386 172.305 30.8636ZM203.591 46.4261C201.602 46.4261 199.801 45.9148 198.188 44.892C196.585 43.858 195.313 42.3409 194.369 40.3409C193.438 38.3295 192.972 35.8636 192.972 32.9432C192.972 29.9432 193.455 27.4489 194.421 25.4602C195.387 23.4602 196.671 21.9659 198.273 20.9773C199.887 19.9773 201.654 19.4773 203.574 19.4773C205.04 19.4773 206.262 19.7273 207.239 20.2273C208.227 20.7159 209.023 21.3295 209.625 22.0682C210.239 22.7955 210.705 23.5114 211.023 24.2159H211.244V11.0909H218.489V46H211.33V41.8068H211.023C210.682 42.5341 210.199 43.2557 209.574 43.9716C208.96 44.6761 208.159 45.2614 207.171 45.7273C206.193 46.1932 205 46.4261 203.591 46.4261ZM205.892 40.6477C207.063 40.6477 208.051 40.3295 208.858 39.6932C209.676 39.0455 210.301 38.142 210.733 36.983C211.176 35.8239 211.398 34.4659 211.398 32.9091C211.398 31.3523 211.182 30 210.75 28.8523C210.318 27.7045 209.693 26.8182 208.875 26.1932C208.057 25.5682 207.063 25.2557 205.892 25.2557C204.699 25.2557 203.693 25.5795 202.875 26.2273C202.057 26.875 201.438 27.7727 201.017 28.9205C200.597 30.0682 200.387 31.3977 200.387 32.9091C200.387 34.4318 200.597 35.7784 201.017 36.9489C201.449 38.108 202.068 39.017 202.875 39.6761C203.693 40.3239 204.699 40.6477 205.892 40.6477ZM235.329 46.5114C232.681 46.5114 230.391 45.9489 228.459 44.8239C226.539 43.6875 225.056 42.108 224.01 40.0852C222.965 38.0511 222.442 35.6932 222.442 33.0114C222.442 30.3068 222.965 27.9432 224.01 25.9205C225.056 23.8864 226.539 22.3068 228.459 21.1818C230.391 20.0455 232.681 19.4773 235.329 19.4773C237.976 19.4773 240.26 20.0455 242.181 21.1818C244.113 22.3068 245.601 23.8864 246.647 25.9205C247.692 27.9432 248.215 30.3068 248.215 33.0114C248.215 35.6932 247.692 38.0511 246.647 40.0852C245.601 42.108 244.113 43.6875 242.181 44.8239C240.26 45.9489 237.976 46.5114 235.329 46.5114ZM235.363 40.8864C236.567 40.8864 237.573 40.5455 238.38 39.8636C239.186 39.1705 239.794 38.2273 240.204 37.0341C240.624 35.8409 240.834 34.483 240.834 32.9602C240.834 31.4375 240.624 30.0795 240.204 28.8864C239.794 27.6932 239.186 26.75 238.38 26.0568C237.573 25.3636 236.567 25.017 235.363 25.017C234.147 25.017 233.124 25.3636 232.294 26.0568C231.476 26.75 230.857 27.6932 230.436 28.8864C230.027 30.0795 229.823 31.4375 229.823 32.9602C229.823 34.483 230.027 35.8409 230.436 37.0341C230.857 38.2273 231.476 39.1705 232.294 39.8636C233.124 40.5455 234.147 40.8864 235.363 40.8864ZM269.592 46.4943C267.921 46.4943 266.433 46.2045 265.126 45.625C263.819 45.0341 262.785 44.1648 262.024 43.017C261.274 41.858 260.899 40.4148 260.899 38.6875C260.899 37.233 261.166 36.0114 261.7 35.0227C262.234 34.0341 262.961 33.2386 263.882 32.6364C264.802 32.0341 265.847 31.5795 267.018 31.2727C268.2 30.9659 269.438 30.75 270.734 30.625C272.257 30.4659 273.484 30.3182 274.416 30.1818C275.347 30.0341 276.024 29.8182 276.444 29.5341C276.864 29.25 277.075 28.8295 277.075 28.2727V28.1705C277.075 27.0909 276.734 26.2557 276.052 25.6648C275.382 25.0739 274.427 24.7784 273.188 24.7784C271.882 24.7784 270.842 25.0682 270.069 25.6477C269.296 26.2159 268.785 26.9318 268.535 27.7955L261.819 27.25C262.16 25.6591 262.83 24.2841 263.83 23.125C264.83 21.9545 266.12 21.0568 267.7 20.4318C269.291 19.7955 271.132 19.4773 273.222 19.4773C274.677 19.4773 276.069 19.6477 277.399 19.9886C278.739 20.3295 279.927 20.858 280.961 21.5739C282.007 22.2898 282.83 23.2102 283.433 24.3352C284.035 25.4489 284.336 26.7841 284.336 28.3409V46H277.45V42.3693H277.245C276.825 43.1875 276.262 43.9091 275.558 44.5341C274.853 45.1477 274.007 45.6307 273.018 45.983C272.029 46.3239 270.887 46.4943 269.592 46.4943ZM271.671 41.483C272.739 41.483 273.683 41.2727 274.501 40.8523C275.319 40.4205 275.961 39.8409 276.427 39.1136C276.893 38.3864 277.126 37.5625 277.126 36.642V33.8636C276.899 34.0114 276.586 34.1477 276.188 34.2727C275.802 34.3864 275.364 34.4943 274.876 34.5966C274.387 34.6875 273.899 34.7727 273.41 34.8523C272.921 34.9205 272.478 34.983 272.08 35.0398C271.228 35.1648 270.484 35.3636 269.847 35.6364C269.211 35.9091 268.717 36.2784 268.364 36.7443C268.012 37.1989 267.836 37.767 267.836 38.4489C267.836 39.4375 268.194 40.1932 268.91 40.7159C269.637 41.2273 270.558 41.483 271.671 41.483ZM300.839 46.5114C298.191 46.5114 295.902 45.9489 293.97 44.8239C292.049 43.6875 290.566 42.108 289.521 40.0852C288.476 38.0511 287.953 35.6932 287.953 33.0114C287.953 30.3068 288.476 27.9432 289.521 25.9205C290.566 23.8864 292.049 22.3068 293.97 21.1818C295.902 20.0455 298.191 19.4773 300.839 19.4773C303.487 19.4773 305.771 20.0455 307.691 21.1818C309.623 22.3068 311.112 23.8864 312.157 25.9205C313.203 27.9432 313.726 30.3068 313.726 33.0114C313.726 35.6932 313.203 38.0511 312.157 40.0852C311.112 42.108 309.623 43.6875 307.691 44.8239C305.771 45.9489 303.487 46.5114 300.839 46.5114ZM300.873 40.8864C302.078 40.8864 303.083 40.5455 303.89 39.8636C304.697 39.1705 305.305 38.2273 305.714 37.0341C306.135 35.8409 306.345 34.483 306.345 32.9602C306.345 31.4375 306.135 30.0795 305.714 28.8864C305.305 27.6932 304.697 26.75 303.89 26.0568C303.083 25.3636 302.078 25.017 300.873 25.017C299.657 25.017 298.635 25.3636 297.805 26.0568C296.987 26.75 296.368 27.6932 295.947 28.8864C295.538 30.0795 295.333 31.4375 295.333 32.9602C295.333 34.483 295.538 35.8409 295.947 37.0341C296.368 38.2273 296.987 39.1705 297.805 39.8636C298.635 40.5455 299.657 40.8864 300.873 40.8864Z" fill="#174399"/>
<g clip-path="url(#clip0_15_446)">
<path d="M3.59283 75.0439C6.00214 70.4378 9.4259 66.8458 13.8641 64.2681C18.3023 61.6903 23.5436 60.4226 29.588 60.4226C34.7871 60.4226 39.3943 61.3945 43.4944 63.3384C47.5944 65.2823 50.8914 68.0291 53.4698 71.5788C56.0482 75.1285 57.7389 79.2698 58.5843 84.0027H38.8026C37.9149 82.0166 36.6046 80.4953 34.9561 79.3965C33.3077 78.2978 31.4056 77.7485 29.2499 77.7485C26.0797 77.7485 23.5859 78.9317 21.7683 81.2982C19.9508 83.6646 19.0209 86.834 19.0209 90.8485C19.0209 94.8631 19.9508 98.0324 21.7683 100.399C23.5859 102.765 26.0797 103.949 29.2499 103.949C31.4056 103.949 33.3077 103.399 34.9561 102.301C36.6046 101.202 37.9149 99.6805 38.8026 97.6944H58.5843C57.7389 102.427 56.0482 106.569 53.4698 110.118C50.8914 113.668 47.5944 116.415 43.4944 118.359C39.3943 120.303 34.7871 121.275 29.588 121.275C23.5436 121.275 18.3023 120.007 13.8641 117.429C9.4259 114.851 6.00214 111.259 3.59283 106.653C1.18352 102.047 0 96.7647 0 90.8485C0 84.9324 1.18352 79.6501 3.59283 75.0439Z" fill="#174399"/>
<path d="M79 117.471C74.3082 114.809 70.5463 111.175 67.7988 106.484C65.0514 101.793 63.6565 96.5534 63.6565 90.6795C63.6565 84.8056 65.0514 79.5656 67.7988 74.8749C70.5463 70.1842 74.3082 66.55 79 63.93C83.6918 61.31 88.8908 60 94.5126 60C100.134 60 105.291 61.31 109.983 63.93C114.675 66.55 118.352 70.1842 121.1 74.8749C123.847 79.5656 125.2 84.8056 125.2 90.6795C125.2 96.5534 123.847 101.793 121.1 106.484C118.352 111.175 114.632 114.809 109.941 117.471C105.249 120.134 100.092 121.444 94.5126 121.444C88.9331 121.444 83.6918 120.134 79 117.471ZM103.093 100.357C105.122 97.9479 106.136 94.7363 106.136 90.6795C106.136 86.6227 105.122 83.3266 103.093 80.9178C101.064 78.5091 98.1899 77.3259 94.4703 77.3259C90.7507 77.3259 87.7919 78.5091 85.763 80.9178C83.7341 83.3266 82.7196 86.5805 82.7196 90.6795C82.7196 94.7786 83.7341 97.9479 85.763 100.357C87.7919 102.765 90.7084 103.949 94.4703 103.949C98.2322 103.949 101.064 102.765 103.093 100.357Z" fill="#174399"/>
<path d="M174.189 61.0142V75.8891H150.688V84.1717H167.595V98.286H150.688V120.852H131.92V61.0142H174.189Z" fill="#174399"/>
<path d="M222.798 61.0142V75.8891H199.296V84.1717H216.204V98.286H199.296V120.852H180.529V61.0142H222.798Z" fill="#174399"/>
<path d="M247.905 75.9736V83.3266H266.503V97.4408H247.905V105.892H269.04V120.852H229.138V61.0142H269.04V75.9736H247.905Z" fill="#174399"/>
<path d="M294.866 75.9736V83.3266H313.464V97.4408H294.866V105.892H316V120.852H276.098V61.0142H316V75.9736H294.866Z" fill="#174399"/>
<path d="M34.3644 138.981V156.138H51.0182V167.801H34.3644V185H22.4869V167.801H5.49493V156.138H22.4446V138.981H34.3221H34.3644Z" fill="#E3A8CA"/>
<path d="M90.8352 138.981V156.138H107.489V167.801H90.8352V185H78.9578V167.801H62.0081V156.138H78.9578V138.981H90.8352Z" fill="#E3A8CA"/>
</g>
<defs>
<clipPath id="clip0_15_446">
<rect width="316" height="125" fill="white" transform="translate(0 60)"/>
</clipPath>
</defs>
</svg>
