<svg width="390" height="399" viewBox="0 0 390 399" fill="none" xmlns="http://www.w3.org/2000/svg">
<g clip-path="url(#clip0_17_447)">
<path d="M26.749 132.693L311.346 133.616L311.933 209.544L271.097 270.287L245.605 289.5L200.744 308.461L149.929 310.391L96.6824 293.107L43.855 235.637L26.749 192.597V132.693Z" fill="#DD4E10"/>
<path d="M297.51 296.631C297.51 312.656 240.742 325.576 170.725 325.576C100.707 325.576 43.939 312.656 43.939 296.631C43.939 288.912 57.1877 281.949 78.8218 276.747C103.81 297.638 135.926 310.139 171.06 310.139C206.194 310.139 238.142 297.638 263.047 276.831C284.513 282.033 297.678 288.996 297.678 296.631H297.51Z" fill="#174399"/>
<path d="M170.892 312.74C136.596 312.74 103.307 300.658 77.0609 278.761C43.5197 250.822 24.3174 209.712 24.3174 166.168V67H316.964V166.588C316.964 210.048 297.846 250.906 264.472 278.761C238.394 300.658 205.104 312.74 170.892 312.74ZM29.4324 72.1178V166.085C29.4324 208.202 47.9639 247.802 80.3312 274.817C105.655 295.96 137.854 307.622 170.892 307.622C203.93 307.622 236.046 295.96 261.202 274.901C293.401 248.054 311.849 208.537 311.849 166.672V72.1178H29.4324Z" fill="#174399"/>
<path d="M345.222 226.492C330.8 229.26 316.293 226.324 304.302 218.521L307.069 214.242C318.976 222.045 333.818 224.478 348.241 220.619C366.857 215.585 381.028 199.644 384.214 180.599C389.413 149.053 365.179 121.702 334.573 121.702C327.781 121.702 321.157 123.044 314.952 125.645L312.939 120.947C319.731 118.094 327.026 116.584 334.489 116.584C367.863 116.584 394.444 146.2 389.245 180.599C385.807 203.503 367.779 222.213 345.055 226.492H345.222Z" fill="#174399"/>
<path d="M340.862 204.426C329.793 206.44 319.06 203 311.346 195.365L314.951 191.758C321.408 198.218 330.548 201.154 339.856 199.392C350.673 197.379 359.561 188.737 361.825 177.998C365.515 160.044 351.931 144.271 334.657 144.271C328.032 144.271 321.66 146.62 316.628 150.899L313.274 147.039C319.228 142.006 326.775 139.153 334.657 139.153C355.117 139.153 371.217 157.862 366.856 179.089C364.173 191.841 353.691 202.077 340.862 204.426Z" fill="#174399"/>
<path d="M170.641 339C86.7039 339 0 323.143 0 296.631C0 278.341 40.0817 267.854 64.0636 263.239C65.4053 262.988 66.8308 263.911 67.0824 265.253C67.3339 266.679 66.4115 268.022 65.0699 268.273C28.0907 275.405 5.19888 286.312 5.19888 296.631C5.19888 314.669 71.6943 333.882 170.725 333.882C269.755 333.882 336.25 314.585 336.25 296.631C336.25 285.556 313.275 274.817 274.786 267.854C273.361 267.602 272.438 266.26 272.69 264.917C272.941 263.491 274.283 262.568 275.625 262.82C305.56 268.273 341.281 278.509 341.281 296.631C341.281 323.143 254.494 339 170.641 339Z" fill="#174399"/>
<path d="M327.11 120.444V142.509C323.002 142.845 318.893 144.523 315.455 146.872C315.287 141.502 315.203 136.217 315.036 130.847C315.036 129.085 315.036 127.407 315.455 125.729C315.958 124.051 316.964 122.457 318.557 121.786C321.157 120.695 324.679 121.87 327.027 120.36L327.11 120.444Z" fill="#174399"/>
<path d="M326.272 201.658C326.272 208.705 325.769 215.753 324.93 222.716C320.402 222.381 315.958 221.206 312.017 218.941C310.172 217.934 308.411 216.508 307.824 214.494C307.405 212.816 307.908 211.054 308.495 209.376C309.837 205.601 311.262 201.825 312.771 198.134C313.023 197.63 313.191 197.043 313.694 196.708C314.365 196.288 315.203 196.372 315.958 196.624C319.396 197.547 323.505 199.392 326.188 201.742L326.272 201.658Z" fill="#174399"/>
<path d="M154.541 243.02C154.793 244.866 155.128 246.627 155.631 248.389C156.134 250.067 156.637 251.745 157.392 253.255C158.985 256.611 161.417 260.135 165.358 261.058C167.287 261.477 169.299 261.31 171.06 260.471C172.737 259.716 174.246 258.625 175.504 257.283C176.175 256.527 176.846 255.772 177.433 254.933C178.523 253.423 179.529 251.745 180.368 249.983C181.877 246.879 183.051 243.691 184.057 240.419C185.986 233.959 187.076 227.247 187.495 220.535C187.915 214.494 187.831 208.37 186.741 202.413C185.818 197.463 184.393 192.009 180.787 188.234C179.362 186.724 177.349 185.549 175.253 185.297C174.666 185.297 173.995 185.213 173.408 185.297C173.24 185.297 173.073 185.297 172.905 185.297C172.234 185.381 171.647 185.549 171.06 185.801H170.892C170.641 185.885 170.389 185.969 170.138 186.136C166.364 187.898 163.681 191.758 161.752 195.365C158.901 200.735 157.057 206.775 155.799 212.732C154.457 219.192 153.786 225.737 153.786 232.365C153.786 235.888 154.038 239.412 154.541 242.852V243.02Z" fill="#174399"/>
<path d="M237.639 204.678C238.813 204.342 239.903 203.755 240.909 203V202.664L240.658 202.245V201.825L240.406 201.406V200.986L240.155 200.567V200.147L239.903 199.728V199.308L239.652 198.889V198.469L239.4 198.05V197.63L239.148 197.211V196.791L238.897 196.288L238.729 195.785L238.562 195.281L238.394 194.778V194.275L238.142 193.771L237.975 193.268L237.807 192.764L237.639 192.261L237.471 191.758L237.304 191.254L237.136 190.751L236.968 190.247V189.744L236.717 189.241V188.821L236.465 188.402V187.982L236.297 187.563V187.227L236.13 186.891V186.556L235.962 186.22V185.885L235.794 185.465V185.046L235.627 184.626V184.207L235.375 183.787V183.368L235.124 182.948V182.529L234.872 182.109V181.69L234.704 181.27V180.935L234.537 180.599V180.263L234.369 179.928V179.592L234.201 179.341V179.089L234.117 178.837V178.585L234.033 178.334V178.166L233.95 177.998V177.83L233.866 177.663V177.495L233.782 177.327V177.159V176.991V176.824V176.656V176.488V176.32V176.152V175.985V175.817V175.733V175.481V175.313V175.146V174.978V174.81V174.726V174.642H233.866H233.95H234.033L234.201 174.726H234.369L234.537 174.894H234.704L234.872 175.146L235.124 175.313L235.375 175.481L235.627 175.649L235.878 175.817L236.13 175.985L236.381 176.152L236.633 176.32L236.884 176.488L237.136 176.656L237.388 176.824L237.639 176.991L237.891 177.159L238.142 177.327L238.394 177.495L238.645 177.663L238.897 177.83L239.148 177.998L239.4 178.166L239.652 178.334L239.903 178.502L240.155 178.669L240.406 178.837L240.658 179.005L240.909 179.173L241.161 179.341L241.496 179.508L241.832 179.76L242.167 180.012L242.503 180.263L242.754 180.515L243.006 180.767L243.257 181.019L243.509 181.27L243.76 181.522L244.012 181.774L244.264 182.025L244.515 182.277L244.767 182.529L245.018 182.78L245.27 183.032L245.521 183.284L245.773 183.535L246.024 183.787L246.276 184.039L246.528 184.291L246.779 184.458L247.031 184.626L247.282 184.794L247.534 184.962L247.785 185.13L248.037 185.297L248.205 185.465L248.372 185.633L248.54 185.801L248.708 185.969L248.875 186.136L249.043 186.304L249.211 186.472L249.379 186.64C250.888 181.019 251.559 175.146 251.726 169.273C251.894 163.316 251.475 157.359 250.552 151.486C249.798 146.704 248.624 141.922 246.863 137.391C245.437 133.7 243.677 130.176 241.161 127.155C239.652 125.394 237.891 123.716 235.794 122.709C235.794 122.709 235.711 122.709 235.627 122.625C234.453 122.038 233.195 121.702 231.937 121.618C231.937 121.618 231.853 121.618 231.769 121.618C231.769 121.618 231.686 121.618 231.602 121.618C231.518 121.618 231.434 121.618 231.266 121.618C228.667 121.534 226.151 122.457 224.139 124.051C220.365 126.904 218.018 131.35 216.424 135.713C214.16 141.838 213.154 148.382 212.735 154.842C212.316 161.051 212.567 167.343 213.406 173.468C214.244 179.341 215.502 185.13 217.766 190.667C220.114 196.372 223.552 202.497 229.589 204.93C231.937 205.769 234.285 205.936 236.717 205.181L237.639 204.678Z" fill="#174399"/>
<path d="M110.602 204.51C111.608 204.426 112.615 204.175 113.453 203.839V203.252V202.832L113.285 202.413V201.909L113.118 201.406V200.903L112.95 200.399V199.896L112.782 199.392V198.805L112.615 198.218V197.63L112.447 197.043V196.54L112.279 196.036V195.533L112.111 195.03V194.526L111.944 194.023V193.603L111.776 193.184V192.764L111.608 192.345V191.925L111.441 191.506V191.086L111.273 190.667V190.247L111.105 189.828V189.408L110.937 188.989V188.569L110.77 188.15V187.73L110.602 187.311V186.808L110.434 186.304V185.801L110.267 185.297V184.794L110.015 184.291V183.787L109.847 183.368V182.948L109.68 182.529V182.109L109.512 181.69V181.27L109.344 180.935V180.599L109.177 180.263V179.928L109.009 179.592V179.257L108.925 178.921V178.585L108.841 178.25V177.914L108.757 177.579V177.243L108.673 176.907V176.572V176.32V176.068V175.817V175.565V175.313V175.062V174.894V174.726V174.558V174.391V174.223V174.055V173.971V173.719V173.552V173.384V173.216V173.048V172.964H108.757H108.841L108.925 173.132H109.093L109.26 173.384L109.428 173.552L109.596 173.719L109.764 173.887L109.931 174.055L110.099 174.307L110.351 174.558L110.602 174.81L110.854 175.062L111.105 175.313L111.357 175.565L111.608 175.817L111.86 176.068L112.111 176.32L112.363 176.572L112.615 176.824L112.866 177.075L113.118 177.327L113.369 177.579L113.621 177.83L113.872 178.082L114.124 178.334L114.375 178.585L114.627 178.837L114.879 179.089L115.13 179.341L115.382 179.592L115.717 179.844L116.053 180.096L116.388 180.347L116.639 180.599L116.891 180.851L117.143 181.102L117.394 181.354L117.646 181.606L117.897 181.857L118.149 182.109L118.4 182.277L118.652 182.445L118.904 182.613L119.071 182.78L119.239 182.948L119.407 183.116L119.574 183.284L119.742 183.452L119.91 183.619L120.077 183.787L120.245 183.955L120.413 184.123L120.581 184.291L120.748 184.458L120.916 184.71L121.168 184.962L121.419 185.213L121.671 185.465L121.838 185.717L122.006 185.969L122.174 186.22L122.341 186.472L122.509 186.724L122.677 186.975L122.845 187.227L123.012 187.479L123.18 187.73L123.348 187.982L123.515 188.234L123.683 188.402L123.851 188.569L124.019 188.737L124.186 188.905L124.354 189.073L124.522 189.241L124.689 189.408L124.857 189.576L125.025 189.744L125.192 189.912L125.36 190.08L125.528 190.247C127.792 184.962 129.134 179.257 129.888 173.468C130.727 167.175 130.811 160.799 130.224 154.506C129.637 148.634 128.463 142.761 126.366 137.223C124.689 132.944 122.425 128.75 118.987 125.645C117.897 124.638 116.639 123.8 115.298 123.128C114.879 122.961 114.459 122.709 114.04 122.625C114.04 122.625 113.872 122.625 113.788 122.541C111.776 121.786 109.428 121.702 107.332 122.205C100.204 123.967 95.9278 131.099 93.4122 137.475C91.0643 143.516 89.7227 149.892 89.2196 156.352C88.6326 162.645 88.8003 168.937 89.6388 175.229C90.5612 181.857 92.2383 188.486 95.5085 194.358C98.5272 199.896 103.978 205.349 110.854 204.594L110.602 204.51Z" fill="#174399"/>
<g clip-path="url(#clip1_17_447)">
<path d="M307.91 106.96C306.65 105.87 304.75 106.4 303.22 106.21C300.55 106.11 297.88 105.89 295.27 105.31C292.67 104.89 290.43 103.18 289.81 100.54C288.6 96.73 288.57 92.67 287.54 88.82C287.35 87.51 285.91 86.44 284.7 87.31C283.19 88.86 282.97 91.25 282.56 93.3C281.93 94.09 282.07 95.21 281.89 96.16C281.6 100.52 279.74 103.41 275.7 105.19C273.67 106.11 271.5 106.66 269.33 107.1C267.87 107.59 265.18 107.2 265 109.26C265.01 111.22 267.3 110.97 268.68 111.11C270.6 111.3 272.5 111.66 274.38 112.09C281.98 113.37 283.37 120.36 283.61 127.03C283.89 128.57 283.21 132.07 284.82 132.73C289.27 134.37 285.8 122.69 291.61 116.7C295.59 112.98 300.99 111.61 306.09 110.02C307.64 109.79 309.15 108.49 307.92 106.96H307.91ZM286 120.09C285.12 115.97 282.7 111.87 278.71 110.15C277.48 109.62 276.2 109.25 274.9 108.94C280.05 107.3 284.36 103.51 284.88 97.89C285.26 97.73 285.58 97.4 285.74 97.01C287.01 105.6 290.08 108.25 298.66 109.07C293.13 111.06 287.83 114.13 286.01 120.09H286Z" fill="white"/>
</g>
</g>
<g clip-path="url(#clip2_17_447)">
<path d="M41.7959 7.55967C40.3912 7.37263 39.0019 7.91817 37.6435 8.22991C35.1736 8.90015 32.7501 9.69508 30.3265 10.5056C29.0607 7.87141 27.8413 5.20604 26.4674 2.61861C25.8654 1.71457 25.5103 0.311741 24.3372 0.0311759C23.766 -0.0623458 23.272 0.155871 22.9324 0.62348C22.4848 1.30931 22.6391 2.19776 22.5928 2.97711C22.5928 3.50706 22.5928 4.03702 22.5928 4.56698C22.5928 6.65563 22.6237 8.74428 22.7163 10.8329C19.9069 12.2825 16.943 13.3892 14.0564 14.6517C13.1148 15.1505 11.9262 15.3376 11.2315 16.1948C10.259 18.1744 12.6517 18.6108 14.0718 18.6732C16.4028 18.9226 18.7646 18.9693 21.0955 18.7979C20.0767 22.0399 18.7954 25.2041 17.7612 28.4462C17.5296 29.3346 16.9585 30.2854 17.3598 31.2051C18.6719 33.3093 20.6478 30.6751 21.6203 29.5529C23.519 27.1992 25.2479 24.7053 27.1157 22.3205C29.8634 24.1909 32.4105 26.3575 34.9884 28.4462C35.7602 29.0697 36.5166 29.7087 37.2884 30.3166C37.7052 30.6439 38.1374 31.0492 38.6623 31.1583C39.2643 31.283 39.8972 30.9713 40.1751 30.4101C40.7308 28.9138 39.5113 27.4642 38.9556 26.1393C37.6589 23.4272 36.3622 20.7306 35.0501 18.0341C37.0878 15.1505 39.8972 12.9528 42.3053 10.3809C43.355 9.52363 43.2161 7.85582 41.7959 7.54408V7.55967Z" fill="white"/>
</g>
<g clip-path="url(#clip3_17_447)">
<path d="M7.11712 397.679C-1.20603 394.303 -2.69569 381.41 5.17821 376.615C11.1132 372.847 20.7841 375.905 22.392 383.245C28.5634 392.443 15.7713 402.694 7.11712 397.679ZM12.6028 391.171C14.66 391.073 17.0718 389.19 16.2206 386.865C14.589 384.786 14.8491 383.22 11.657 382.853C5.08362 382.364 6.97525 391.465 12.6028 391.171Z" fill="white"/>
</g>
<defs>
<clipPath id="clip0_17_447">
<rect width="390" height="272" fill="white" transform="translate(0 67)"/>
</clipPath>
<clipPath id="clip1_17_447">
<rect width="43.36" height="45.88" fill="white" transform="translate(265 87)"/>
</clipPath>
<clipPath id="clip2_17_447">
<rect width="32" height="32" fill="white" transform="translate(11)"/>
</clipPath>
<clipPath id="clip3_17_447">
<rect width="24" height="24" fill="white" transform="translate(0 375)"/>
</clipPath>
</defs>
</svg>
