<svg width="459" height="501" viewBox="0 0 459 501" fill="none" xmlns="http://www.w3.org/2000/svg">
<path d="M78.9547 293.783L365.741 294.709L366.332 370.917L325.182 431.883L299.494 451.166L254.288 470.197L203.082 472.134L149.426 454.787L96.1922 397.105L78.9547 353.907V293.783Z" fill="#E3A8CA"/>
<path d="M351.799 458.324C351.799 474.408 294.593 487.376 224.038 487.376C153.482 487.376 96.2767 474.408 96.2767 458.324C96.2767 450.577 109.627 443.588 131.428 438.367C156.608 459.335 188.971 471.881 224.376 471.881C259.78 471.881 291.974 459.335 317.07 438.451C338.701 443.672 351.968 450.661 351.968 458.324H351.799Z" fill="#174399"/>
<path d="M224.207 474.492C189.647 474.492 156.101 462.366 129.653 440.388C95.8542 412.347 76.5042 371.085 76.5042 327.382V227.849H371.402V327.803C371.402 371.422 352.137 412.431 318.506 440.388C292.228 462.366 258.682 474.492 224.207 474.492ZM81.6586 232.985V327.298C81.6586 369.57 100.333 409.315 132.949 436.43C158.467 457.65 190.914 469.355 224.207 469.355C257.499 469.355 289.862 457.65 315.211 436.514C347.658 409.568 366.248 369.906 366.248 327.887V232.985H81.6586Z" fill="#174399"/>
<path d="M399.878 387.927C385.344 390.706 370.726 387.758 358.643 379.927L361.431 375.633C373.43 383.464 388.386 385.906 402.92 382.032C421.678 376.98 435.959 360.98 439.169 341.865C444.408 310.203 419.988 282.752 389.147 282.752C382.302 282.752 375.627 284.099 369.374 286.71L367.346 281.994C374.191 279.131 381.542 277.615 389.062 277.615C422.692 277.615 449.478 307.34 444.239 341.865C440.775 364.854 422.608 383.632 399.709 387.927H399.878Z" fill="#174399"/>
<path d="M395.484 365.78C384.33 367.801 373.515 364.349 365.741 356.686L369.374 353.065C375.88 359.549 385.091 362.496 394.47 360.728C405.37 358.707 414.327 350.034 416.608 339.255C420.326 321.235 406.638 305.404 389.231 305.404C382.556 305.404 376.134 307.761 371.064 312.056L367.684 308.183C373.684 303.13 381.288 300.267 389.231 300.267C409.849 300.267 426.072 319.045 421.678 340.35C418.974 353.149 408.412 363.422 395.484 365.78Z" fill="#174399"/>
<path d="M223.953 500.849C139.371 500.849 51.9998 484.934 51.9998 458.324C51.9998 439.967 92.3898 429.441 116.556 424.81C117.908 424.557 119.345 425.483 119.598 426.831C119.852 428.262 118.922 429.609 117.57 429.862C80.3066 437.02 57.2387 447.967 57.2387 458.324C57.2387 476.429 124.246 495.712 224.038 495.712C323.83 495.712 390.837 476.344 390.837 458.324C390.837 447.209 367.684 436.43 328.9 429.441C327.463 429.188 326.534 427.841 326.787 426.494C327.041 425.062 328.393 424.136 329.745 424.389C359.91 429.862 395.906 440.135 395.906 458.324C395.906 484.934 308.451 500.849 223.953 500.849Z" fill="#174399"/>
<path d="M381.626 281.489V303.635C377.486 303.972 373.346 305.656 369.881 308.014C369.712 302.625 369.628 297.32 369.459 291.931C369.459 290.162 369.459 288.478 369.881 286.794C370.388 285.11 371.402 283.51 373.008 282.836C375.627 281.741 379.176 282.92 381.542 281.405L381.626 281.489Z" fill="#174399"/>
<path d="M380.781 363.001C380.781 370.075 380.274 377.148 379.429 384.137C374.866 383.801 370.388 382.622 366.417 380.348C364.558 379.338 362.783 377.906 362.192 375.885C361.769 374.201 362.276 372.433 362.868 370.749C364.22 366.959 365.656 363.17 367.177 359.465C367.431 358.96 367.6 358.37 368.107 358.033C368.783 357.612 369.628 357.696 370.388 357.949C373.853 358.875 377.993 360.728 380.697 363.086L380.781 363.001Z" fill="#174399"/>
<path d="M170.043 382.201C175.705 396.6 188.717 407.631 203.758 411C222.517 416.389 241.867 412.431 259.273 404.516C270.681 399.042 280.989 389.695 285.89 377.906C288.003 371.675 287.411 364.601 284.707 358.623C281.581 351.97 275.328 345.318 267.47 345.739C262.4 346.328 258.175 349.528 253.443 351.381C247.359 353.907 240.937 355.423 234.346 355.928C228.939 357.107 223.277 356.939 217.785 356.349C206.631 355.086 195.9 349.191 184.577 351.297C169.198 354.16 165.058 368.812 170.043 382.201ZM255.302 359.886C255.555 361.823 255.893 363.759 255.893 365.696C255.724 371.001 254.119 377.317 247.528 373.78C243.895 371.759 243.134 367.296 242.289 363.591C242.289 363.591 242.289 363.422 242.289 363.338C246.683 362.496 251.077 361.402 255.302 359.886ZM228.009 394.579C234.177 395.505 240.261 397.274 245.838 400.221C246.176 400.389 246.514 400.558 246.768 400.811C236.797 404.263 226.235 406.452 215.588 405.105C211.701 404.684 207.983 404.01 204.519 402.916C205.702 401.737 206.885 400.642 208.237 399.632C213.813 395.337 221.08 393.653 228.009 394.579ZM218.292 364.601C219.897 364.77 221.587 364.854 223.193 364.854C222.01 369.149 219.982 373.527 215.503 375.296C206.885 378.664 204.519 368.896 205.448 362.159C209.673 363.254 213.898 364.265 218.207 364.686L218.292 364.601Z" fill="#174399"/>
<path d="M129.822 339.171C131.428 340.771 133.963 340.771 135.568 339.171C138.188 336.729 140.892 334.287 143.596 331.929C146.046 334.455 148.919 336.56 152.045 338.16C152.045 338.497 151.876 338.75 151.876 339.087C151.454 343.044 147.398 349.697 152.89 351.633C158.383 352.728 158.214 346.749 159.312 343.129C159.481 342.455 159.65 341.781 159.735 341.108C163.875 342.034 167.762 341.865 171.395 340.855C171.987 342.371 172.663 343.886 173.17 345.402C173.677 346.918 174.015 348.686 175.536 349.612C178.493 351.549 182.634 348.434 181.62 345.065C180.859 342.371 179.761 339.844 178.831 337.234C181.282 335.55 183.394 333.36 185.253 330.75C187.281 332.603 189.309 334.455 191.168 336.476C194.97 340.181 200.632 334.708 196.998 330.834C195.308 329.066 193.449 327.298 191.59 325.613C190.745 324.94 190.069 324.182 189.225 323.508C189.985 321.656 190.576 319.803 191.083 317.782C192.435 312.561 184.915 310.456 183.225 315.593C182.042 319.382 180.775 323.087 178.493 326.371C168.692 340.013 149.003 332.013 144.356 318.035C143.427 315.424 144.187 312.477 140.807 311.467C138.695 310.877 136.413 312.14 135.737 314.245C135.061 317.951 136.92 321.74 138.441 325.024C138.441 325.108 138.526 325.192 138.61 325.361C137.512 326.287 136.498 327.298 135.484 328.224C133.54 329.908 131.681 331.676 129.822 333.36C128.217 334.876 128.217 337.571 129.822 339.087V339.171Z" fill="#174399"/>
<path d="M273.046 327.129C273.046 327.129 273.469 326.877 273.638 326.708C275.75 329.824 278.539 332.603 281.75 334.539C280.144 337.655 277.356 341.95 281.75 344.223C286.566 345.992 287.58 340.939 289.27 337.739C293.495 338.834 297.804 338.666 301.776 337.318C302.705 339.255 303.381 341.36 304.226 343.297C306.339 348.265 313.69 345.402 311.831 340.35C310.986 338.413 310.31 336.392 309.465 334.455C309.296 334.118 309.127 333.697 309.043 333.36C311.155 331.676 313.014 329.487 314.366 327.045C316.647 326.961 318.929 327.045 321.21 327.55C326.534 328.224 327.717 320.477 322.478 319.55C321.126 319.382 319.351 319.129 317.492 318.877C318.084 316.772 318.506 314.666 318.844 312.561C319.182 310.372 317.661 308.267 315.464 307.93C310.733 307.593 310.817 311.719 310.141 315.172C309.465 317.866 308.62 320.477 307.437 322.919C299.579 336.897 280.313 329.319 277.863 315.34C277.863 312.814 277.778 310.625 274.905 309.614C272.539 308.856 270.005 310.54 269.667 312.982C269.667 315.003 269.836 317.024 270.343 318.961C269.582 319.382 268.906 319.972 268.23 320.561C265.442 322.582 260.372 325.361 263.16 329.403C266.625 333.529 270.089 329.15 273.215 327.045L273.046 327.129Z" fill="#174399"/>
<path d="M228.516 332.434C231.22 332.434 234.684 332.434 236.036 335.045C237.219 338.329 231.473 339.592 229.108 340.097C225.643 340.771 224.883 345.823 227.925 347.507C230.882 349.023 234.346 347.17 237.135 345.992C245.078 342.539 247.021 333.192 240.261 327.55C236.543 324.35 231.389 323.929 226.657 324.435C220.658 325.361 222.601 334.118 228.432 332.434H228.516Z" fill="#174399"/>
<path d="M316.107 33.4889C339.001 61.5128 341.799 114.991 311.697 138.953C299.525 149.257 285.509 154.838 272.407 162.742C260.814 170.043 249.739 179.743 241.746 192.871C239.843 195.095 239.778 201.193 236.602 200.224C230.538 196.809 245.018 179.649 247.818 176.56C257.013 166.195 267.878 158.625 279.147 152.749C290.964 146.259 303.397 140.605 313.537 130.175C337.229 106.787 331.971 59.7562 312.178 36.7571C299.901 21.8965 282.284 15.3477 265.259 16.0094C253.455 16.5967 242.059 21.668 231.414 28.2306C195.556 50.4399 168.465 94.1416 128.632 105.817C121.415 107.71 113.969 106.027 107.509 102.039C104.86 100.48 102.303 98.7022 99.7688 96.876C98.7179 96.1133 98.4411 94.2528 99.0909 92.9481C99.7633 91.595 101.16 91.2084 102.211 91.9711C112.649 100.117 122.557 103.845 134.678 97.8477C173.875 81.5499 200.642 36.4331 238.962 17.8391C264.587 4.08617 296.482 9.05546 316.127 33.4901L316.107 33.4889Z" fill="#DD4E10"/>
<path d="M288.928 40.0711C312.656 54.3226 311.449 91.4613 296.303 115.554C287.585 129.61 275.089 138.822 262.263 145.449C246.423 154.18 227.665 161.584 218.485 181.813C217.454 184.214 216.667 186.781 216.419 189.506C216.157 191.208 216.722 193.161 215.806 194.649C214.626 196.593 211.935 195.704 211.834 193.231C211.369 184.285 215.389 176.091 220.029 169.579C237.4 145.674 265.402 143.526 284.556 122.796C302.062 105.55 311.872 66.0059 291 48.3948C279.402 37.761 263.74 39.2048 250.468 44.8072C201.495 65.0315 161.433 147.06 107.324 139.142C102.421 138.19 87.2688 133.314 87.8719 126.127C88.2393 124.631 89.5498 123.741 90.6989 124.186C99.0178 133.296 111.251 135.276 122.157 133.661C144.527 129.695 163.44 111.889 181.146 94.904C202.724 74.2991 223.722 50.3952 249.576 39.2719C262.314 34.0598 276.923 32.2019 288.905 40.1195L288.928 40.0711Z" fill="#DD4E10"/>
<path d="M228.387 130.991C240.78 120.925 278.07 101.544 278.381 81.6865C278.052 72.7737 272.087 65.5534 265.253 64.4317C256.891 62.966 248.518 66.7304 240.959 71.2927C221.61 82.8447 207.73 104.226 192.561 122.689C170.824 150.906 143.119 167.842 112.121 165.793C99.8798 164.585 88.0019 159.414 77.6312 151.447C75.2835 149.458 77.4837 144.662 80.0735 146.542C80.9892 147.271 81.9245 148.002 82.8855 148.634C91.9542 154.827 101.976 158.936 112.34 160.053C136.559 161.681 161.092 150.65 179.612 130.03C199.165 109.2 214.545 81.335 237.919 66.8694C247.752 60.7546 259.291 55.5925 269.943 59.9653C277.306 62.988 283.007 72.2593 282.874 82.2893C281.46 110.124 233.051 129.163 217.417 147.223C208.981 156.413 201.487 167.506 197.394 180.677C196.19 184.912 195.029 189.398 195.497 193.861C197.228 197.256 193.239 200.845 191.568 197.129C189.303 188.121 193.129 178.295 196.379 170.178C203.748 153.523 215.339 140.244 228.389 130.966L228.387 130.991Z" fill="#DD4E10"/>
<path d="M448.628 180.046C450.449 175.802 452.422 171.659 454.016 167.313C454.851 164.711 457.128 160.088 453.46 158.75C451.006 158.219 449.387 160.67 447.641 161.983C445.111 164.181 442.708 166.581 440.254 168.854C438.079 164.888 436.156 160.771 433.399 157.158C432.21 155.541 430.591 153.192 428.238 154.051C426.543 154.657 426.417 156.653 426.417 158.194C426.341 162.64 426.417 167.111 426.518 171.583C424.19 172.088 421.762 172.619 419.358 173.149C416.222 173.882 413.085 174.639 410.024 175.625C408.253 176.13 407.367 178.378 408.556 179.869C409.341 180.905 410.783 181.182 411.946 181.536C416.449 182.774 421.028 183.709 425.632 184.466C424.241 189.014 422.571 193.485 421.256 198.083C420.8 200.457 419.03 203.262 420.117 205.586C421.736 208.213 424.62 206.394 426.088 204.626C427.504 203.16 428.921 201.67 430.312 200.154C432.766 197.502 435.195 194.849 437.547 192.121C439.242 193.056 441.19 193.536 442.936 194.319C446.73 195.91 450.55 197.401 454.472 198.639C456.875 199.725 459.632 198.058 458.848 195.329C458.165 193.384 456.647 191.818 455.483 190.125C454.345 188.584 453.207 187.068 451.992 185.603C450.702 184.012 449.311 182.496 447.894 181.031C448.198 180.778 448.451 180.475 448.603 180.096L448.628 180.046Z" fill="#DD4E10"/>
<path d="M45.0253 463.494C42.5752 461.992 39.7288 461.23 37.2339 459.796C34.4063 458.421 33.4375 455.531 33.4935 452.512C33.4658 450.397 33.8493 448.326 34.18 446.253C34.2534 444.649 35.0971 442.338 33.439 441.33C32.9367 440.149 31.205 439.859 30.307 440.746C29.7629 441.298 29.5369 442.043 29.2683 442.749C28.1897 445.789 27.0306 449.129 24.045 450.759C19.4101 453.517 13.8979 452.698 8.83052 452.239C7.33747 452.242 6.25163 453.978 6.97681 455.313C7.33663 456.04 8.076 456.386 8.71795 456.799C13.5398 459.702 18.425 464.192 18.3354 470.342C18.3176 473.613 17.0766 476.716 16.1424 479.808C15.8963 480.628 15.5292 481.456 15.6785 482.328C15.967 483.962 18.1077 484.549 19.2318 483.361C19.9909 482.598 20.4946 481.605 21.0341 480.676C22.7971 477.645 24.531 474.526 26.9471 471.965C30.3295 468.362 35.5445 468.122 40.1244 467.886C41.698 467.73 43.3906 467.969 44.8924 467.392C46.4535 466.642 46.4504 464.386 45.0186 463.519L45.0253 463.494ZM22.3892 470.986C22.4236 470.069 22.3807 469.145 22.2818 468.232C21.8896 464.718 20.1466 461.365 17.7924 458.815C17.156 458.134 16.4881 457.472 15.7946 456.857C17.412 456.834 19.0349 456.691 20.6275 456.366C23.9371 455.696 27.2094 454.13 29.4385 451.479C29.109 457.095 31.1089 461.658 36.336 463.985C30.9015 464.354 25.6749 466.363 22.3892 470.986Z" fill="#DD4E10"/>
</svg>
