<svg width="462" height="345" viewBox="0 0 462 345" fill="none" xmlns="http://www.w3.org/2000/svg">
<path d="M55.092 135.298L343.338 136.235L343.932 213.28L302.572 274.916L276.754 294.411L231.318 313.651L179.851 315.609L125.922 298.072L72.4173 239.756L55.092 196.083V135.298Z" fill="#DD4E10"/>
<path d="M329.324 301.647C329.324 317.908 271.828 331.018 200.913 331.018C129.998 331.018 72.5023 317.908 72.5023 301.647C72.5023 293.815 85.9209 286.749 107.832 281.471C133.141 302.669 165.668 315.354 201.253 315.354C236.838 315.354 269.195 302.669 294.419 281.556C316.161 286.834 329.494 293.9 329.494 301.647H329.324Z" fill="#174399"/>
<path d="M201.083 317.993C166.348 317.993 132.631 305.734 106.049 283.514C72.0776 255.165 52.6291 213.45 52.6291 169.266V68.6393H349.028V169.692C349.028 213.79 329.664 255.25 295.863 283.514C269.45 305.734 235.734 317.993 201.083 317.993ZM57.8097 73.8323V169.181C57.8097 211.917 76.5788 252.1 109.361 279.513C135.009 300.966 167.622 312.8 201.083 312.8C234.545 312.8 267.072 300.966 292.551 279.598C325.163 252.355 343.847 212.258 343.847 169.777V73.8323H57.8097Z" fill="#174399"/>
<path d="M377.648 230.476C363.041 233.286 348.348 230.306 336.204 222.389L339.006 218.047C351.066 225.964 366.098 228.433 380.706 224.517C399.56 219.409 413.913 203.234 417.14 183.909C422.406 151.899 397.861 124.146 366.863 124.146C359.983 124.146 353.274 125.508 346.989 128.147L344.951 123.38C351.83 120.485 359.219 118.953 366.778 118.953C400.579 118.953 427.501 149.004 422.236 183.909C418.754 207.15 400.494 226.135 377.479 230.476H377.648Z" fill="#174399"/>
<path d="M373.232 208.087C362.022 210.13 351.151 206.639 343.338 198.892L346.989 195.231C353.529 201.787 362.786 204.766 372.213 202.979C383.169 200.935 392.171 192.167 394.464 181.27C398.201 163.051 384.443 147.046 366.947 147.046C360.238 147.046 353.784 149.43 348.688 153.772L345.291 149.856C351.321 144.748 358.964 141.853 366.947 141.853C387.67 141.853 403.976 160.838 399.56 182.376C396.842 195.317 386.226 205.703 373.232 208.087Z" fill="#174399"/>
<path d="M200.828 344.639C115.816 344.639 28 328.549 28 301.647C28 283.088 68.5956 272.447 92.885 267.764C94.2438 267.509 95.6876 268.446 95.9424 269.808C96.1972 271.255 95.263 272.617 93.9041 272.872C56.4509 280.109 33.2655 291.176 33.2655 301.647C33.2655 319.951 100.613 339.446 200.913 339.446C301.213 339.446 368.561 319.866 368.561 301.647C368.561 290.41 345.291 279.513 306.309 272.447C304.865 272.191 303.931 270.829 304.186 269.467C304.441 268.02 305.799 267.083 307.158 267.339C337.478 272.872 373.657 283.259 373.657 301.647C373.657 328.549 285.756 344.639 200.828 344.639Z" fill="#174399"/>
<path d="M359.304 122.869V145.259C355.143 145.599 350.981 147.302 347.499 149.686C347.329 144.237 347.244 138.874 347.074 133.425C347.074 131.637 347.074 129.935 347.499 128.232C348.009 126.529 349.028 124.912 350.641 124.231C353.274 123.124 356.841 124.316 359.219 122.784L359.304 122.869Z" fill="#174399"/>
<path d="M358.455 205.277C358.455 212.428 357.945 219.579 357.096 226.645C352.51 226.305 348.009 225.113 344.017 222.814C342.149 221.793 340.365 220.346 339.771 218.302C339.346 216.6 339.856 214.812 340.45 213.109C341.809 209.278 343.253 205.447 344.781 201.702C345.036 201.191 345.206 200.595 345.716 200.254C346.395 199.829 347.244 199.914 348.009 200.169C351.491 201.106 355.652 202.979 358.37 205.362L358.455 205.277Z" fill="#174399"/>
<path d="M280.576 169.692C272.678 166.627 263.93 168.755 255.947 170.543C236.413 176.332 220.022 197.871 197.941 190.634C178.068 184.59 160.403 160.668 137.982 171.394C127.366 176.417 120.147 187.655 119.467 199.318C118.788 217.451 130.423 233.03 143.672 244.183C156.241 255.42 171.783 263.082 188.514 265.381H188.089C212.209 269.042 237.347 263.338 258.24 250.993C278.283 239.671 296.033 216.089 295.014 192.252C294.759 182.887 289.748 173.012 280.576 169.692ZM173.482 185.016C178.492 188.251 183.333 191.571 188.174 193.699C189.533 194.38 190.807 194.976 192.081 195.487C188.344 201.106 183.163 204.766 176.369 200.765C169.49 195.913 170.679 191.911 173.482 185.016ZM200.319 260.017C187.07 259.592 173.567 256.442 162.016 249.716C162.356 249.291 162.696 248.865 163.035 248.354C164.055 247.077 165.244 245.885 166.433 244.694C171.868 239.756 179.087 236.946 186.306 236.18C198.111 235.074 210.34 237.713 220.617 243.757C225.288 246.737 230.214 250.227 232.676 255.335C222.145 258.57 211.02 260.103 200.404 259.932L200.319 260.017ZM215.181 197.53C223.164 195.657 230.553 191.401 238.452 186.718C238.706 187.655 239.131 188.591 239.301 189.528C239.725 191.401 239.98 193.273 239.895 195.146C239.641 210.981 220.617 209.874 215.181 197.615V197.53Z" fill="#174399"/>
<path d="M124.223 171.99C124.223 171.99 124.903 172.161 125.327 172.161C126.601 172.161 127.96 171.479 128.385 170.202C129.574 168.415 131.018 166.882 132.546 165.435C137.557 161.008 144.691 158.539 151.315 159.816C155.477 160.583 159.638 162.626 162.186 166.116C164.904 169.351 169.745 165.435 167.197 162.03C166.178 160.753 165.074 159.561 163.885 158.624C164.14 157.943 164.309 157.262 164.309 156.581C164.819 153.942 165.244 151.218 165.498 148.494C166.178 138.363 167.707 127.296 163.205 117.846C156.666 104.31 137.132 105.161 130.593 118.272C124.648 130.446 127.026 144.663 129.914 157.347C129.914 157.943 130.083 158.454 130.338 158.88C128.81 159.987 127.366 161.349 126.092 162.796C123.969 165.18 119.722 169.692 124.223 171.905V171.99ZM151.655 130.616C151.655 130.616 152.08 130.446 152.335 130.36C152.589 130.19 152.929 130.105 153.269 129.935C154.118 129.594 154.967 129.424 155.902 129.509C156.411 129.509 157.006 129.594 157.515 129.764C158.449 130.02 159.299 130.531 159.978 131.127C161.082 132.063 161.677 133.34 161.931 134.702C162.101 135.724 162.016 136.745 161.931 137.767C161.762 138.959 161.507 140.066 161.082 141.172C160.403 142.705 159.384 144.152 158.364 145.429C157.175 146.791 155.817 147.898 154.203 148.749C153.014 149.345 151.74 149.686 150.381 149.6C149.107 149.6 147.918 149.26 146.814 148.579C144.861 147.387 143.757 145.344 143.587 143.045C143.417 141.257 143.842 139.47 144.521 137.852C145.201 136.149 146.22 134.617 147.409 133.34C148.598 132.148 150.042 131.127 151.57 130.531L151.655 130.616ZM136.538 122.698C136.623 121.847 136.878 121.081 137.387 120.4C137.897 119.634 138.491 119.123 139.256 118.612C140.02 118.101 140.869 117.676 141.719 117.42C142.313 117.25 142.992 117.08 143.672 117.165C144.436 117.165 145.201 117.335 145.795 117.676C146.305 118.016 146.899 118.357 147.239 118.868C147.833 119.634 148.173 120.4 148.173 121.336C148.173 122.273 147.918 123.294 147.409 123.975C146.984 124.486 146.559 124.912 146.05 125.252C145.625 126.019 145.031 126.615 144.266 127.04C143.332 127.551 142.398 127.892 141.294 127.892C141.294 127.892 141.209 127.892 141.124 127.892C139.426 127.806 137.727 126.7 137.132 125.082C136.793 124.316 136.623 123.55 136.708 122.698H136.538Z" fill="#174399"/>
<path d="M244.736 157.262C242.273 159.135 240.15 161.349 238.536 163.818C238.536 163.818 238.536 163.818 238.621 163.732C238.112 164.328 237.857 165.095 237.857 165.861C237.857 166.712 238.197 167.563 238.876 168.074C239.471 168.67 240.235 168.925 241.084 168.925C241.849 168.925 242.528 168.67 243.123 168.244C243.972 167.393 244.481 166.372 245.246 165.52C246.35 164.243 247.624 163.051 249.068 162.03C256.371 157.007 268.176 153.772 275.056 161.178C276.924 163.307 278.538 166.882 281.935 164.499C283.294 163.392 283.463 161.349 282.444 159.987C280.576 157.518 278.538 155.134 275.905 153.516C280.406 140.576 280.406 117.42 267.327 110.78C256.796 105.842 244.481 111.716 240.235 122.273C236.159 132.914 239.131 145.173 243.802 155.134C244.142 155.815 244.481 156.581 244.821 157.262H244.736ZM267.497 128.317C268.176 128.317 268.856 128.487 269.535 128.658C271.489 129.339 272.932 131.127 273.187 133.17C273.612 136.064 272.168 138.959 270.469 141.257C269.365 142.705 268.091 143.982 266.733 145.088C265.289 146.28 263.675 147.132 261.977 147.727C261.042 148.068 260.108 148.153 259.174 148.153C258.07 148.153 256.966 147.898 256.032 147.387C254.673 146.706 253.739 145.514 253.229 144.067C252.889 143.13 252.889 142.109 253.059 141.087C253.399 139.384 254.078 137.852 255.013 136.405C255.777 135.128 256.881 133.936 257.985 132.914C258.664 132.318 259.429 131.723 260.193 131.212C261.637 130.105 263.251 129.169 264.949 128.573C265.798 128.317 266.563 128.147 267.412 128.147L267.497 128.317ZM249.068 119.123C249.577 118.272 250.257 117.591 251.021 116.995C252.21 116.058 253.569 115.207 255.097 114.866C255.522 114.781 255.947 114.696 256.371 114.696C256.711 114.696 257.051 114.611 257.391 114.611C257.815 114.611 258.24 114.696 258.664 114.866C260.023 115.377 261.042 116.484 261.297 117.931C261.467 118.612 261.297 119.293 261.127 119.974C260.957 120.485 260.703 120.826 260.448 121.251C260.363 121.421 260.193 121.592 260.023 121.847C259.684 122.273 259.259 122.698 258.834 123.124C257.985 123.975 257.051 124.657 255.947 125.082C255.437 125.252 254.928 125.423 254.418 125.593C253.824 125.763 253.229 125.848 252.635 125.848C251.7 125.848 250.851 125.593 250.087 125.082C249.068 124.316 248.303 123.209 248.218 121.847C248.218 120.826 248.473 119.974 248.983 119.123H249.068Z" fill="#174399"/>
<path d="M421.077 149.971C420.559 149.524 420.145 148.82 420.145 148.116C420.041 139.666 420.266 131.2 420.559 122.75C420.593 121.548 420.593 120.191 421.594 119.332C422.681 118.302 424.493 118.457 425.476 119.556C426.063 120.208 426.252 121.05 426.114 121.84C425.976 123.781 425.994 125.738 425.925 127.696C425.683 134.119 425.562 140.559 425.631 146.982C426.114 149.679 423.337 151.774 421.094 149.954L421.077 149.971ZM425.39 123.265C425.39 123.265 425.442 123.197 425.476 123.179C425.545 123.094 425.614 122.991 425.683 122.905C425.873 122.596 426.028 122.269 426.08 121.909C425.976 122.407 425.735 122.87 425.39 123.265Z" fill="#E3A8CA"/>
<path d="M435.586 159.039C433.171 157.647 433.878 155.089 435.88 153.663C438.105 151.619 440.452 149.679 442.746 147.704C447.542 143.496 452.425 139.409 457.411 135.442C460.137 133.089 463.726 137.107 461.069 139.529C453.443 145.694 445.903 152.014 438.64 158.609C438.899 158.369 439.106 158.094 439.278 157.785C438.623 159.107 436.932 159.726 435.603 159.039H435.586Z" fill="#E3A8CA"/>
<path d="M412.623 161.22C405.204 157.854 398.078 153.818 390.763 150.246C388.538 148.786 383.966 148.047 384 144.853C384 143.359 385.467 142.208 386.899 142.277C387.554 142.311 388.193 142.603 388.676 143.067C389.883 143.737 391.143 144.338 392.368 144.939C399.735 148.58 406.964 152.512 414.382 156.033C417.781 157.252 416.039 162.336 412.623 161.22Z" fill="#E3A8CA"/>
<path d="M395.387 197.165C392.937 195.344 394.68 193.043 396.164 191.274C399.321 187.204 402.185 183.46 405.239 179.493C407.343 176.762 409.465 174.049 411.346 171.593C413.002 169.841 413.848 166.887 416.367 166.956C419.006 167.145 419.748 170.322 417.919 171.988C415.314 175.491 412.226 179.355 409.707 182.67C406.55 186.757 403.668 190.484 400.667 194.417C399.442 196.169 397.803 198.71 395.387 197.165Z" fill="#E3A8CA"/>
<path d="M446.611 196.46C443.747 193.129 441.521 189.299 438.761 185.881C436.552 183.099 434.206 180.454 431.877 177.775C430.773 176.504 429.651 175.234 428.53 173.98C427.408 172.572 425.303 171.215 426.045 169.154C426.615 167.334 429.099 166.612 430.514 167.952C431.514 169.12 432.55 170.287 433.602 171.421C437.518 175.903 441.538 180.317 445.058 185.126C446.956 187.685 448.629 190.415 450.717 192.837C453.063 195.55 449.112 199.105 446.611 196.478V196.46ZM430.945 171.524C431.049 171.404 431.118 171.249 431.169 171.112C431.1 171.249 431.031 171.387 430.945 171.524Z" fill="#E3A8CA"/>
<path d="M39.902 30.6966C39.2631 28.8597 38.5526 27.054 37.7704 25.2793C34.5275 18.2236 30.8234 11.4091 27.2916 4.51291C25.9022 1.59022 30.3811 -0.590406 31.7706 2.33228C36.51 11.6294 41.7297 20.7144 45.212 30.6088C45.1685 30.5293 45.1115 30.442 45.068 30.3625C45.068 30.3625 45.0545 30.3548 45.0411 30.347C46.3235 32.0299 44.5482 34.7021 42.4734 34.1748C40.8168 33.8527 40.4397 32.0582 39.8807 30.7025L39.902 30.6966Z" fill="#E3A8CA"/>
<path d="M3.62791 26.0107C1.82123 24.8952 2.51518 21.8342 4.58313 21.5057C6.56274 21.1444 10.4441 24.7083 12.4311 25.7286C18.5027 29.6509 24.4039 33.8373 30.5854 37.5693C31.7782 38.3848 33.4604 38.8485 33.9912 40.3149C34.6837 42.1828 32.6608 44.1684 30.8055 43.4779C21.4496 38.1487 12.782 31.6584 3.60665 26.0166L3.62791 26.0107Z" fill="#E3A8CA"/>
<path d="M53.87 24.4432C53.8361 21.8682 53.6289 19.2837 53.2862 16.7479C53.0449 15.4306 53.9416 14.0634 55.2666 13.8134C59.324 13.2924 58.2564 19.2006 58.7411 21.8003C58.7117 23.9582 59.1642 26.3037 58.5341 28.3866C57.9263 29.5943 56.394 30.1414 55.2032 29.5083C53.2811 28.5617 53.9932 26.1818 53.8778 24.4296L53.87 24.4432Z" fill="#E3A8CA"/>
<path d="M6.21498 47.2775C9.06943 47.9106 11.9295 48.565 14.7973 49.2059C17.2166 49.7871 19.7045 50.0636 22.1385 50.5264C23.9389 50.3515 25.3998 52.4999 24.4737 54.1038C24.5702 53.9058 24.632 53.7058 24.6882 53.4846C24.2537 55.6623 21.8739 55.7563 20.1538 55.2345C15.12 54.503 10.1819 53.2651 5.22127 52.1591C2.05924 51.439 3.02257 46.703 6.22282 47.2639L6.21498 47.2775ZM20.4627 51.3531C20.4627 51.3531 20.447 51.3803 20.4257 51.3861C20.3708 51.4813 20.289 51.5609 20.2207 51.6483C20.2207 51.6483 20.1736 51.7299 20.15 51.7707C20.2364 51.6211 20.3495 51.4871 20.4548 51.3667L20.4627 51.3531Z" fill="#E3A8CA"/>
</svg>
